<svg width="33" height="32" fill="none" xmlns="http://www.w3.org/2000/svg"><path d="M10.03 3.2a3.2 3.2 0 00-3.2 3.2v7.2a.8.8 0 001.6 0V6.4a1.6 1.6 0 011.6-1.6h6.4v5.6a2.4 2.4 0 002.4 2.4h5.6v12.8a1.6 1.6 0 01-1.6 1.6h-12.8a1.6 1.6 0 01-1.6-1.6v-4.8h-1.6v4.8a3.2 3.2 0 003.2 3.2h12.8a3.2 3.2 0 003.2-3.2V11.862a2.4 2.4 0 00-.704-1.697l-6.263-6.262a2.4 2.4 0 00-1.697-.703H10.03z" fill="#2E186A"/><path d="M18.83 11.2h5.268l-6.069-6.07v5.27a.8.8 0 00.8.8z" fill="#D9D1ED"/><path d="M12.367 13.292a.8.8 0 00-1.454-.05L8.734 17.6H6.03a.8.8 0 000 1.6h3.2a.8.8 0 00.715-.442l1.618-3.237 3.328 7.986a.8.8 0 001.454.05l2.179-4.357h1.905a.8.8 0 000-1.6h-2.4a.8.8 0 00-.715.442l-1.618 3.237-3.328-7.987z" fill="#2E186A"/></svg>