<svg width="33" height="32" fill="none" xmlns="http://www.w3.org/2000/svg"><path fill="#D9D1ED" d="M5 17h23v9H5z"/><path d="M9.886 7.2v2.4h-3.2a3.2 3.2 0 00-3.2 3.2V24a3.2 3.2 0 003.2 3.2H25.89a3.2 3.2 0 003.2-3.2V12.8a3.2 3.2 0 00-3.2-3.2h-3.204V7.2a2.4 2.4 0 00-2.4-2.4h-8a2.4 2.4 0 00-2.4 2.4zm2.4-.8h8a.8.8 0 01.8.8v2.4h-9.6V7.2a.8.8 0 01.8-.8zm-5.6 4.8H25.89a1.6 1.6 0 011.6 1.6V16h-4.804v-.8a.8.8 0 10-1.6 0v.8h-9.6v-.8a.8.8 0 10-1.6 0v.8h-4.8v-3.2a1.6 1.6 0 011.6-1.6zm14.4 6.4v.8a.8.8 0 001.6 0v-.8h4.804V24a1.6 1.6 0 01-1.6 1.6H6.686a1.6 1.6 0 01-1.6-1.6v-6.4h4.8v.8a.8.8 0 001.6 0v-.8h9.6z" fill="#2E186A"/></svg>