<svg width="33" height="32" fill="none" xmlns="http://www.w3.org/2000/svg"><path d="M12.143 3.2a.8.8 0 01.8.8v2.4h2.4V4a.8.8 0 111.6 0v2.4h2.4V4a.8.8 0 011.6 0v2.4h.8a4 4 0 014 4v.8h2.4a.8.8 0 010 1.6h-2.4v2.4h2.4a.8.8 0 010 1.6h-2.4v2.4h2.4a.8.8 0 010 1.6h-2.4v.8a4 4 0 01-4 4h-.8V28a.8.8 0 01-1.6 0v-2.4h-2.4V28a.8.8 0 01-1.6 0v-2.4h-2.4V28a.8.8 0 01-1.6 0v-2.4h-.8a4 4 0 01-4-4v-.8h-2.4a.8.8 0 010-1.6h2.4v-2.4h-2.4a.8.8 0 010-1.6h2.4v-2.4h-2.4a.8.8 0 010-1.6h2.4v-.8a4 4 0 014-4h.8V4a.8.8 0 01.8-.8z" fill="#2E1968"/><path d="M21.743 8a2.4 2.4 0 012.4 2.4v11.2a2.4 2.4 0 01-2.4 2.4h-11.2a2.4 2.4 0 01-2.4-2.4V10.4a2.4 2.4 0 012.4-2.4h11.2z" fill="#D9D1ED"/><path d="M11.343 16a4.8 4.8 0 119.6 0 4.8 4.8 0 01-9.6 0z" fill="#2E1968"/><path d="M16.143 12.8a3.2 3.2 0 100 6.4 3.2 3.2 0 000-6.4z" fill="#fff"/></svg>