<svg width="32" height="32" fill="none" xmlns="http://www.w3.org/2000/svg"><path fill-rule="evenodd" clip-rule="evenodd" d="M7.386 3.488A.8.8 0 018 3.2h16a.8.8 0 01.615.288l4 4.8c.187.224.186.338.185.484V11.2a4.788 4.788 0 01-1.6 3.578V28a.8.8 0 01-.8.8H5.6a.8.8 0 01-.8-.8V14.778A4.788 4.788 0 013.2 11.2V8.8a.8.8 0 01.186-.512l4-4.8zM9.6 19.2v8h4.8v-8H9.6zm9.6 3.2v-3.2h3.2v3.2h-3.2z" fill="#D9D1ED"/><path d="M17.6 18.4v4.8a.8.8 0 00.8.8h4.8a.8.8 0 00.8-.8v-4.8a.8.8 0 00-.8-.8h-4.8a.8.8 0 00-.8.8zm1.6 4v-3.2h3.2v3.2h-3.2z" fill="#2E1869"/><path d="M8 3.2a.8.8 0 00-.614.288l-4 4.8A.8.8 0 003.2 8.8v2.4c0 1.422.618 2.7 1.6 3.578V28a.8.8 0 00.8.8h20.8a.8.8 0 00.8-.8V14.778a4.788 4.788 0 001.6-3.578V8.772c.001-.146.002-.26-.185-.484l-4-4.8A.8.8 0 0024 3.2H8zm0 11.2a3.2 3.2 0 01-3.2-3.2V9.6h6.4v1.6A3.2 3.2 0 018 14.4zm8 0a3.2 3.2 0 01-3.2-3.2V9.6h6.4v1.6a3.2 3.2 0 01-3.2 3.2zm8 0a3.2 3.2 0 01-3.2-3.2V9.6h6.4v1.6a3.2 3.2 0 01-3.2 3.2zM8 27.2H6.4V15.727c.5.177 1.04.273 1.6.273 1.67 0 3.14-.852 4-2.146A4.795 4.795 0 0016 16c1.67 0 3.14-.852 4-2.146A4.796 4.796 0 0024 16c.561 0 1.1-.096 1.6-.273V27.2H16v-8.8a.8.8 0 00-.8-.8H8.8a.8.8 0 00-.8.8v8.8zM11.424 8H5.708l2.667-3.2h4.115L11.424 8zm7.466 0h-5.78l1.067-3.2h3.647L18.89 8zm1.687 0L19.51 4.8h4.115L26.292 8h-5.715zM9.6 27.2v-8h4.8v8H9.6z" fill="#2E1968"/></svg>