<svg width="33" height="32" fill="none" xmlns="http://www.w3.org/2000/svg"><path d="M12.715 3.2a4 4 0 00-4 4V20a4 4 0 004 4h12.8a4 4 0 004-4V7.2a4 4 0 00-4-4h-12.8zm2.4 4a2.4 2.4 0 002.4 2.4h10.4V20a2.4 2.4 0 01-2.4 2.4h-12.8a2.4 2.4 0 01-2.4-2.4V7.2a2.4 2.4 0 012.4-2.4h2.4v2.4z" fill="#2E186A"/><path d="M27.915 8v-.8a2.4 2.4 0 00-2.4-2.4h-8.8v2.4a.8.8 0 00.8.8h10.4z" fill="#D9D1ED"/><path d="M20.715 28.8a4.001 4.001 0 003.92-3.2h-1.657a2.4 2.4 0 01-2.263 1.6h-10.4a4.8 4.8 0 01-4.8-4.8V12c0-1.045.668-1.934 1.6-2.264V8.08a4.001 4.001 0 00-3.2 3.92v10.4a6.4 6.4 0 006.4 6.4h10.4z" fill="#2E186A"/></svg>