<svg width="33" height="32" fill="none" xmlns="http://www.w3.org/2000/svg"><path d="M23.224 1.641a.8.8 0 01.506 1.012l-.8 2.4a.8.8 0 01-1.518-.506l.8-2.4a.8.8 0 011.012-.506zm5.914 2.925a.8.8 0 10-1.132-1.131l-3.2 3.2a.8.8 0 001.132 1.131l3.2-3.2zm-16.396.467c.966-2.033 3.673-2.46 5.218-.823l10.538 11.168c1.518 1.608.986 4.234-1.037 5.125l-6.3 2.775a5.6 5.6 0 01-10.15 4.472l-1.92.846a2.4 2.4 0 01-2.658-.491l-1.955-1.939A2.4 2.4 0 014 23.432l8.742-18.399zm-.246 22.063a4 4 0 007.18-3.163l-7.18 3.163zM27.771 9.6a.8.8 0 000 1.6h2.398a.8.8 0 100-1.6h-2.398z" fill="#2E186A"/><path d="M14.188 5.72a1.6 1.6 0 012.609-.412l10.538 11.169a1.6 1.6 0 01-.518 2.562L8.446 27.132a.8.8 0 01-.886-.164L5.605 25.03a.8.8 0 01-.16-.911l8.743-18.4z" fill="#D9D1ED"/></svg>