<svg width="210" height="64" viewBox="0 0 210 64" fill="none" xmlns="http://www.w3.org/2000/svg">
<g clip-path="url(#clip0_20265_5192)">
<path d="M55.6558 22.4905L74.7803 42.3018L72.7728 44.2037L69.7086 41.0867L66.7501 43.9395C65.3766 45.3131 63.5275 45.9999 61.5728 45.9471C59.6709 45.9471 57.8218 45.1546 56.4483 43.7282C55.0747 42.3546 54.3879 40.5056 54.4407 38.5509C54.4407 36.649 55.2332 34.7999 56.6596 33.4263L58.6671 31.5244L60.569 33.532L58.6143 35.4339C57.7162 36.2263 57.2407 37.3358 57.2407 38.5509C57.2407 39.7659 57.6633 40.8754 58.5086 41.7735C59.3011 42.6716 60.4105 43.1471 61.6256 43.1471C62.8407 43.1471 63.9501 42.7244 64.8483 41.8792L67.8067 39.0263L55.6558 26.6112V22.4905ZM20.4709 23.0716V41.932H18.6218V39.9244C17.8294 41.3509 16.2973 42.1433 14.3954 42.1433C11.3841 42.1433 9.05957 39.6603 9.05957 36.3848C9.05957 33.1093 11.3841 30.6263 14.3954 30.6263C16.4558 30.6263 17.8294 31.6829 18.6218 33.1093V23.0716H20.4709ZM18.7275 36.332C18.7275 33.9546 17.1426 32.2641 14.8181 32.2641C12.4935 32.2641 10.9615 33.9546 10.9615 36.332C10.9615 38.7093 12.4935 40.5056 14.8181 40.5056C17.1426 40.5056 18.7275 38.7093 18.7275 36.332ZM32.569 36.966C32.569 39.132 31.1954 40.5056 29.135 40.5056C27.286 40.5056 26.4407 39.449 26.4407 37.5471V30.9433H24.5916V37.7584C24.5916 40.5584 26.2822 42.249 28.7652 42.249C30.5086 42.249 31.9879 41.615 32.6747 40.1886V42.0376H34.5766V30.9433H32.7275V37.0188H32.569V36.966ZM44.6143 30.6263C42.8709 30.6263 41.3917 31.2603 40.7049 32.7924V30.8905H38.8558V41.932H40.7049V35.8565C40.7049 33.6905 42.0784 32.3169 44.1388 32.3169C45.9879 32.3169 46.8332 33.4263 46.8332 35.381V41.8792H48.6822V35.1169C48.735 32.3169 47.0445 30.6263 44.6143 30.6263Z" fill="black"/>
<path d="M73.196 27.7733C74.5696 29.1469 75.2564 30.996 75.2035 32.9507C75.2035 34.8526 74.4111 36.7016 72.9847 38.0752L72.7205 38.3394L70.8186 36.3318L71.0828 36.0677C71.9809 35.2752 72.4564 34.1658 72.4564 32.9507C72.4564 31.7356 72.0337 30.6262 71.1884 29.7281C70.713 29.2526 70.2375 28.8299 69.6035 28.6186V25.6601C70.9243 26.0299 72.245 26.7167 73.196 27.7733ZM57.5054 19.6903L56.1318 21.0639L58.0337 23.0715L59.4073 21.8035C60.7809 20.5356 62.8413 20.5356 64.1092 21.9092C65.3771 23.2828 65.3771 25.3432 64.0035 26.6111L62.63 27.879L64.5318 29.8865L65.9054 28.6186C68.3884 26.2941 68.3884 22.3847 66.0639 19.9016C63.845 17.4715 59.9884 17.3658 57.5054 19.6903ZM133.475 39.6073C134.215 40.9809 135.8 42.1432 138.177 42.1432C140.977 42.1432 142.192 40.7167 142.192 38.8677C142.192 36.7016 140.449 36.0149 138.494 35.4865C136.592 34.9054 135.853 34.5884 135.853 33.5847C135.853 32.6866 136.592 32.1582 137.754 32.1582C138.811 32.1582 139.604 32.6337 140.132 33.4262L141.4 32.4752C140.607 31.3658 139.392 30.7318 137.702 30.7318C135.694 30.7318 134.109 31.8413 134.109 33.796C134.109 35.8564 135.694 36.596 137.49 37.0715C139.392 37.6526 140.343 37.8639 140.343 39.079C140.343 40.1356 139.445 40.7696 138.019 40.7696C136.434 40.7696 135.483 39.9771 134.796 38.9205L133.475 39.6073ZM146.894 38.5507C146.894 41.1922 148.162 42.1432 149.853 42.1432C151.226 42.1432 152.071 41.562 152.547 41.0337L151.49 39.8186C151.173 40.1356 150.751 40.4526 149.958 40.4526C149.166 40.4526 148.69 39.9771 148.69 38.5507V32.4224H151.807V30.8375H148.69V23.0715H146.841V30.8903H145.151V32.4752H146.841L146.894 38.5507ZM156.404 41.9318H158.253V36.1205C158.253 33.5847 159.521 32.4224 161.105 32.4224C161.845 32.4224 162.321 32.5809 162.638 32.845L163.377 31.2601C162.902 30.9432 162.268 30.679 161.475 30.679C160.207 30.679 158.939 31.1016 158.253 32.7394L158.358 30.8375H156.509V41.9318H156.404ZM174.313 35.5922C174.154 33.6903 172.939 32.2111 170.615 32.2111C168.554 32.2111 167.075 33.5847 166.758 35.5922H174.313ZM170.879 40.5582C172.57 40.5582 173.679 39.9243 174.419 39.1318L175.528 40.2413C174.471 41.3507 173.045 42.1432 170.879 42.1432C167.287 42.1432 164.856 39.6601 164.856 36.3847C164.856 33.162 167.339 30.6262 170.509 30.6262C174.049 30.6262 176.162 33.3205 176.004 37.0186H166.547C167.022 39.1318 168.502 40.5582 170.879 40.5582ZM188.736 35.5922C188.577 33.6903 187.362 32.2111 185.038 32.2111C182.977 32.2111 181.498 33.5847 181.181 35.5922H188.736ZM185.354 40.5582C187.045 40.5582 188.154 39.9243 188.894 39.1318L190.004 40.2413C188.947 41.3507 187.521 42.1432 185.354 42.1432C181.762 42.1432 179.332 39.6601 179.332 36.3847C179.332 33.162 181.815 30.6262 184.985 30.6262C188.524 30.6262 190.638 33.3205 190.479 37.0186H181.022C181.445 39.1318 182.871 40.5582 185.354 40.5582ZM195.287 38.5507C195.287 41.1922 196.554 42.1432 198.245 42.1432C199.619 42.1432 200.464 41.562 200.939 41.0337L199.883 39.8186C199.566 40.1356 199.143 40.4526 198.351 40.4526C197.558 40.4526 197.083 39.9771 197.083 38.5507V32.4224H200.2V30.8375H197.083V23.0715H195.234V30.8903H193.543V32.4752H195.234L195.287 38.5507ZM87.4073 30.6262C85.3469 30.6262 83.9734 31.4186 83.1809 32.845V23.0715H81.3318V41.9318H83.1809V39.9243C83.9734 41.3507 85.5054 42.1432 87.4073 42.1432C90.4715 42.1432 92.7432 39.6601 92.7432 36.3847C92.7432 33.0564 90.4715 30.6262 87.4073 30.6262ZM87.0375 40.4526C84.713 40.4526 83.1281 38.7092 83.1281 36.279C83.1281 33.8488 84.713 32.2111 87.0375 32.2111C89.362 32.2111 90.8941 33.9016 90.8941 36.279C90.8941 38.6564 89.3092 40.4526 87.0375 40.4526ZM98.5017 32.6337V30.8903H96.5998V41.9318H98.4488V36.1205C98.4488 33.5847 99.7168 32.4224 101.302 32.4224C102.041 32.4224 102.517 32.5809 102.834 32.845L103.573 31.2601C103.098 30.9432 102.464 30.679 101.671 30.679C100.456 30.6262 99.2413 31.0488 98.5017 32.6337ZM110.494 30.6262C108.434 30.6262 106.954 31.4186 106.004 32.7922L107.113 33.8488C107.853 32.8979 108.804 32.2639 110.336 32.2639C111.921 32.2639 112.871 33.0564 112.871 35.2224V35.4337H109.438C107.113 35.4337 105.264 36.4903 105.264 38.8149C105.264 41.1394 106.954 42.196 109.332 42.196C111.022 42.196 112.132 41.7205 112.924 40.6639V41.9318H114.668V35.1167C114.668 32.1054 112.977 30.6262 110.494 30.6262ZM112.977 38.2337C112.977 39.6601 111.551 40.6111 109.86 40.6111C108.117 40.6111 107.219 39.9771 107.219 38.7092C107.219 37.3356 108.328 36.8601 109.702 36.8601H112.977V38.2337ZM128.034 23.0715V32.8979C127.241 31.4715 125.868 30.679 123.807 30.679C120.849 30.679 118.471 33.162 118.471 36.4375C118.471 39.713 120.796 42.196 123.807 42.196C125.709 42.196 127.241 41.4035 128.034 39.9771V41.9847H129.883V23.0715H128.034ZM124.124 40.4526C121.8 40.4526 120.268 38.7092 120.268 36.279C120.268 33.8488 121.8 32.2111 124.124 32.2111C126.449 32.2111 128.034 33.9016 128.034 36.279C128.087 38.7092 126.502 40.4526 124.124 40.4526ZM157.671 33.7432H158.305V30.7847H157.671V33.7432Z" fill="black"/>
</g>
<defs>
<clipPath id="clip0_20265_5192">
<rect width="191.879" height="28" fill="white" transform="translate(9.06055 18)"/>
</clipPath>
</defs>
</svg>
