<svg width="210" height="64" viewBox="0 0 210 64" fill="none" xmlns="http://www.w3.org/2000/svg">
<path d="M40.2288 10.4095H164.475V53.8038H40.2288V10.4095ZM38.0522 55.9998H166.691V8.23293H38.0522V55.9998Z" fill="#131426"/>
<path d="M72.4783 20.7188V43.4654L74.2662 43.6986V45.0298H65.4435V43.6986L67.3479 43.4654V33.1075H56.0475V43.4654L57.7868 43.6986V45.0298H49.1099V43.6986L50.8491 43.4654V20.7188L49.1099 20.4856V19.1836H57.7868V20.4856L56.0475 20.7188V30.4354H67.3382V20.7188L65.4338 20.4856V19.1836H74.2565V20.4856L72.4783 20.7188Z" fill="#131426"/>
<path d="M84.5168 43.6306L86.1783 43.8638V45.0298H78.0649V43.8638L79.7265 43.6306V28.0452L78.0649 27.812V26.646H84.5168V43.6306Z" fill="#131426"/>
<path d="M89.7061 43.9025L91.3287 43.679V20.5632L89.7061 20.33V19.1932H96.1579V43.679L97.8194 43.9025V45.0491H89.7061V43.9025Z" fill="#131426"/>
<path d="M107.691 26.6362H112.044V28.356H107.691V39.2969C107.691 42.1244 108.274 43.0281 110.849 43.0281C111.802 43.0281 112.637 43.0281 113.424 42.824V44.0872C111.082 44.9131 109.11 45.2532 107.448 45.2532C103.717 45.2532 102.862 43.5722 102.862 40.356V28.356H99.4614V26.6362H102.989V22.7981L107.701 21.3892V26.6362" fill="#131426"/>
<path d="M133.867 36.0129C133.867 41.7457 129.99 45.5837 123.888 45.5837C117.99 45.5837 114.22 43.0769 114.22 36.0129C114.22 30.0955 118.097 26.1311 124.199 26.1311C130.233 26.1214 133.867 29.7068 133.867 36.0129ZM128.572 35.8963C128.572 30.0858 126.832 27.5497 124.024 27.5497C121.284 27.5497 119.545 29.9789 119.545 35.8963C119.545 41.7457 121.284 44.1748 124.024 44.1748C126.949 44.1748 128.572 41.8526 128.572 35.8963Z" fill="#131426"/>
<path d="M155.905 43.8638V45.0298H147.792V43.8638L149.414 43.6306V33.1561C149.414 30.2508 148.336 28.9488 146.13 28.9488C145.11 28.9488 143.477 29.6581 142.292 30.484V43.6209L143.954 43.8541V45.0201H135.801V43.8541L137.463 43.6209V28.1618L135.801 27.9286V26.6265H142.292V29.182C144.303 27.5788 146.256 26.2768 148.977 26.2768C152.611 26.2768 154.243 28.395 154.243 32.5634V43.6403L155.905 43.8638Z" fill="#131426"/>
<path d="M84.7603 21.778C84.7603 23.2063 83.5943 24.3723 82.1465 24.3723C80.6987 24.3723 79.5327 23.2258 79.5327 21.778C79.5327 20.3496 80.6987 19.1837 82.1465 19.1837C83.5943 19.1837 84.7603 20.3496 84.7603 21.778Z" fill="#131426"/>
<path d="M169.936 9.64202H170.315C170.568 9.64202 170.665 9.5643 170.665 9.3894C170.665 9.2145 170.578 9.13676 170.315 9.13676H169.936V9.64202ZM171.005 9.36998C171.005 9.62261 170.898 9.76835 170.675 9.84608L171.073 10.4291H170.704L170.335 9.89466H169.936V10.4291H169.625V8.85499H170.315C170.801 8.85499 171.005 9.02018 171.005 9.36998ZM168.994 9.66147C168.994 10.3708 169.577 10.9732 170.305 10.9732C171.015 10.9732 171.617 10.3902 171.617 9.66147C171.617 8.95216 171.034 8.34973 170.305 8.34973C169.577 8.34973 168.994 8.93273 168.994 9.66147ZM171.948 9.66147C171.948 10.5748 171.199 11.323 170.286 11.323C169.373 11.323 168.625 10.5748 168.625 9.66147C168.625 8.74811 169.373 7.99993 170.286 7.99993C171.219 7.99993 171.948 8.72868 171.948 9.66147Z" fill="#131426"/>
</svg>
