<svg width="210" height="64" viewBox="0 0 210 64" fill="none" xmlns="http://www.w3.org/2000/svg">
<g clip-path="url(#clip0_19406_3536)">
<path fill-rule="evenodd" clip-rule="evenodd" d="M150.619 15.9999C150.975 16.071 151.259 16.1421 151.615 16.2132C154.317 16.711 156.664 17.7777 158.726 19.6266C158.868 19.7688 159.01 19.911 159.224 20.1243C157.944 21.6177 156.45 23.0399 155.17 24.5332C155.099 24.4621 154.957 24.391 154.886 24.2488C153.464 22.6843 151.757 21.831 149.695 21.5466C148.984 21.4754 148.273 21.4754 147.561 21.6177C146.495 21.9021 145.713 22.471 145.357 23.6088C145.073 24.6754 145.428 25.7421 146.353 26.3821C147.135 26.951 148.059 27.3777 148.984 27.6621C150.619 28.231 152.326 28.7999 153.89 29.4399C155.526 30.0799 157.09 31.0043 158.299 32.3554C159.437 33.6354 160.148 35.0577 160.361 36.7643C160.717 39.1821 160.077 41.3866 158.797 43.3777C158.015 44.5866 156.877 45.511 155.668 46.2221C154.104 47.0754 152.397 47.5732 150.548 47.7154C149.766 47.7866 148.913 47.8577 148.13 47.7866C145.784 47.7154 143.508 47.2888 141.375 46.2221C139.81 45.4399 138.388 44.3732 137.25 42.951C137.25 42.8799 137.179 42.8799 137.179 42.8088C138.53 41.3866 139.881 39.8932 141.304 38.3999C141.446 38.6132 141.659 38.7554 141.801 38.8977C142.726 39.8932 143.721 40.7466 144.93 41.3154C145.784 41.671 146.637 41.8843 147.561 42.0266C148.415 42.1688 149.339 42.0266 150.193 41.8843C151.046 41.671 151.757 41.2443 152.255 40.5332C153.179 39.111 152.824 37.5466 151.473 36.551C150.833 36.1243 150.121 35.7688 149.339 35.4132C148.13 34.9154 146.921 34.5599 145.713 34.1332C144.504 33.7066 143.295 33.2088 142.157 32.4977C140.166 31.2888 138.815 29.5821 138.246 27.2354C137.819 25.1021 138.104 23.111 139.099 21.191C140.308 18.8443 142.228 17.2799 144.646 16.4266C145.357 16.1421 146.068 15.9999 146.85 15.9288C146.921 15.9288 146.993 15.8577 147.064 15.8577L150.619 15.9999ZM90.0325 38.471C90.1748 38.471 90.2459 38.5421 90.317 38.5421C92.1659 38.5421 94.0148 38.5421 95.8636 38.5421C95.8636 38.5421 95.8636 38.5421 95.9348 38.5421C95.9348 38.5421 95.9348 38.5421 96.0059 38.471L93.0903 31.2888H92.9481C93.0192 31.1466 90.0325 38.471 90.0325 38.471ZM94.0148 15.9999C94.2992 16.2132 94.5125 16.5688 94.7259 16.9243C95.6503 19.0577 96.5748 21.2621 97.4281 23.3954C98.2814 25.3866 99.1348 27.3066 99.917 29.2977C100.841 31.5732 101.837 33.7777 102.761 36.0532C103.473 37.6888 104.184 39.3954 104.895 41.031C105.748 43.0221 106.601 45.0132 107.455 47.0043C107.526 47.1466 107.526 47.2888 107.597 47.431H99.6325C99.3481 46.6488 98.9925 45.8666 98.637 45.0132C98.5659 44.7288 98.4236 44.5154 98.3525 44.231C98.2814 43.9466 98.0681 43.8043 97.7836 43.8043C97.2859 43.8043 96.7881 43.8043 96.2903 43.8043H88.6103C88.4681 43.8043 88.397 43.8043 88.2548 43.8043C88.0414 43.8043 87.8992 43.8754 87.757 44.1599C87.4014 45.0132 87.0459 45.8666 86.6903 46.7199C86.6192 46.9332 86.477 47.1466 86.4059 47.3599H79.7214C79.7214 47.2177 79.7925 47.0754 79.7925 46.9332C81.0725 43.9466 82.3525 40.8888 83.7036 37.9021C85.2681 34.2043 86.8325 30.5066 88.4681 26.8088C89.3925 24.5332 90.3881 22.3288 91.3125 20.0532C91.7392 18.9866 92.237 17.9199 92.6636 16.9243C92.8059 16.4977 93.0192 16.1421 93.4459 15.9288L94.0148 15.9999ZM49.5703 16.3554C50.1392 16.4266 50.5659 16.711 50.8503 17.0666C52.3436 18.5599 53.837 20.0532 55.3303 21.5466C57.8192 24.1066 60.3792 26.6666 62.8681 29.2266C63.0103 29.3688 63.0814 29.4399 63.2236 29.5821C63.3659 29.4399 63.5081 29.3688 63.6503 29.2266C67.6325 25.1732 71.6148 21.1199 75.5259 17.1377C75.8814 16.7821 76.3081 16.4977 76.8059 16.4266L76.877 16.4977C76.877 16.4977 76.877 16.4977 76.877 16.5688C76.877 16.6399 76.877 16.711 76.877 16.7821V47.431C76.4503 47.5732 71.6148 47.5732 70.5481 47.5021V32.6399C70.0503 33.0666 69.6948 33.4932 69.2681 33.8488C68.8414 34.2754 68.4148 34.7021 68.0592 35.1288L66.8503 36.3377L65.6414 37.5466C65.2148 37.9732 64.7881 38.3999 64.4325 38.8266C64.0059 39.2532 63.6503 39.6799 63.2236 40.1066L55.9703 32.711C55.8992 32.711 55.8992 32.7821 55.8992 32.7821C55.8992 32.7821 55.8992 32.7821 55.8992 32.8532C55.8992 32.9243 55.8992 32.9243 55.8992 32.9954C55.8992 37.831 55.8992 42.5954 55.8992 47.3599C55.8992 47.3599 55.8992 47.3599 55.8992 47.431C55.4725 47.5021 50.5659 47.5732 49.6414 47.5021V16.3554H49.5703ZM117.624 21.9732C117.553 22.7554 117.553 29.7954 117.624 30.2932C118.904 30.2932 120.184 30.3643 121.464 30.151C122.53 29.9377 123.384 29.4399 124.024 28.5154C124.379 27.9466 124.521 27.3066 124.664 26.5954C124.735 25.671 124.593 24.7466 124.166 23.8932C123.455 22.6843 122.317 22.1154 120.966 22.0443C120.041 21.9732 119.117 21.9732 118.193 21.9732C118.05 21.9732 117.837 21.9732 117.624 21.9732ZM110.37 47.3599V16.4977C110.513 16.4977 110.655 16.4266 110.797 16.4266C114.068 16.4266 117.339 16.4266 120.61 16.4266C122.246 16.4266 123.881 16.5688 125.446 16.9954C127.437 17.5643 129.073 18.631 130.353 20.2666C131.348 21.5466 131.846 23.0399 131.988 24.6754C132.13 25.9554 131.988 27.1643 131.633 28.3732C131.064 30.151 129.997 31.5732 128.504 32.711C128.361 32.8532 128.148 32.9243 127.935 33.1377C128.219 33.351 128.504 33.5643 128.717 33.7777C129.641 34.4888 130.353 35.4843 130.921 36.4799C131.704 37.831 132.201 39.2532 132.699 40.7466C133.339 42.7377 134.05 44.6577 134.69 46.6488C134.761 46.9332 134.833 47.1466 134.975 47.5021H127.508C127.366 47.5021 127.295 47.5021 127.153 47.5021C126.939 47.5021 126.868 47.431 126.797 47.2177C126.584 46.2221 126.37 45.2266 126.086 44.231C125.588 42.2399 125.019 40.2488 124.095 38.3999C123.455 37.2621 122.601 36.4088 121.25 36.1243C120.824 36.0532 120.468 35.9821 120.041 35.9821C119.33 35.9821 118.548 35.9821 117.837 35.9821C117.837 35.911 117.766 35.911 117.695 35.911C117.624 35.9821 117.624 35.9821 117.624 35.9821C117.624 35.9821 117.624 35.9821 117.624 36.0532V36.1243C117.624 36.1954 117.624 36.1954 117.624 36.2666C117.624 39.9643 117.624 43.6621 117.624 47.3599C117.624 47.3599 117.624 47.3599 117.624 47.431C117.126 47.431 111.01 47.5021 110.37 47.3599Z" fill="#131426"/>
</g>
<defs>
<clipPath id="clip0_19406_3536">
<rect width="110.862" height="32" fill="white" transform="translate(49.5688 16)"/>
</clipPath>
</defs>
</svg>
