<svg width="210" height="64" viewBox="0 0 210 64" fill="none" xmlns="http://www.w3.org/2000/svg">
<g clip-path="url(#clip0_19406_3545)">
<path d="M131.011 16.9732V47.0268H135.518V16.9732H131.011ZM82.8577 16.4598C74.077 16.4597 67.2642 22.8507 67.2642 32C67.2642 41.5614 74.077 47.5404 82.8577 47.5402C91.6383 47.5401 98.4651 41.5614 98.4511 32C98.4384 23.3313 91.6383 16.4598 82.8577 16.4598ZM93.9521 32C93.9521 38.7733 88.985 43.2619 82.8577 43.2619C76.7304 43.2619 71.7633 38.7733 71.7633 32C71.7633 25.3496 76.7304 20.7381 82.8577 20.7381C88.985 20.7381 93.9521 25.3496 93.9521 32ZM37 16V47.0268H41.5999V26.5225L65.5038 48V41.5673L37 16ZM101.841 32L118.569 47.0269H125.276L108.523 32L125.276 16.9732H118.569L101.841 32ZM173 47.0268H168.042L164.416 40.3715H147.994L144.367 47.0268H139.409L145.414 35.9341H162.058L153.758 20.5183L156.205 16L173 47.0268Z" fill="#131426"/>
</g>
<defs>
<clipPath id="clip0_19406_3545">
<rect width="136" height="32" fill="white" transform="translate(37 16)"/>
</clipPath>
</defs>
</svg>
