<svg width="210" height="64" viewBox="0 0 210 64" fill="none" xmlns="http://www.w3.org/2000/svg">
<path d="M102.133 24.3126V33.661L90.2876 23.488V39.9319H93.365V30.5951L105.199 40.7564V39.9319V24.3126" fill="#131426"/>
<path d="M118.438 34.6364C118.438 36.297 117.602 37.6906 115.802 37.6906C113.979 37.6906 113.142 36.297 113.142 34.6364V26.1357H110.077V34.6364C110.077 38.1203 111.9 40.3383 115.802 40.3383C119.843 40.3383 121.504 38.1203 121.504 34.6364V26.1357H118.438" fill="#131426"/>
<path d="M129.448 26.1357L123.746 39.9319H127.229L128.205 37.6906H133.907L134.755 39.9319H138.239L132.095 26.1357H129.448ZM129.029 35.0544L130.853 30.177L132.513 35.0544H129.029Z" fill="#131426"/>
<path d="M151.058 33.6611L141.431 25.7063V39.9321H144.497V32.3953L154.124 40.7566V39.9321V26.136H151.058" fill="#131426"/>
<path d="M164.716 37.6908C162.487 37.6908 160.803 35.8792 160.803 33.2314C160.803 30.5953 162.487 28.7721 164.716 28.7721C166.11 28.7721 166.934 29.1901 167.352 29.7476L170.012 27.936C168.746 26.554 166.528 25.7063 165.134 25.7063C160.803 25.7063 157.749 28.7721 157.749 33.2314C157.749 37.6908 160.803 40.3385 165.134 40.3385C166.934 40.3385 169.176 39.514 170.012 38.1205L167.77 35.8792C166.934 37.2728 166.11 37.6908 164.716 37.6908Z" fill="#131426"/>
<path d="M176.688 37.2725V34.6364H182.413V31.4196H176.688V28.7718H182.82V26.1357H173.495V39.9319H183.238V37.2725" fill="#131426"/>
<path d="M42.6407 24.3125C49.7478 24.3125 58.5272 30.595 58.5272 30.595V30.177C58.5272 30.177 50.1659 15.9512 34.2795 15.9512H29.3904C28.1478 15.9512 27.1724 16.7873 27.1724 17.7628V31.0131C27.1724 32.3951 28.1478 33.2312 29.3904 33.2312H42.6407" fill="#131426"/>
<path d="M66.052 39.9319C58.9333 39.9319 50.1655 33.6609 50.1655 33.6609V34.2067C50.1655 34.2067 58.9333 48.4325 74.4133 48.4325H79.2791C80.5449 48.4325 81.381 47.457 81.381 46.1912V33.2312C81.381 31.9886 80.5449 31.0132 79.2791 31.0132H66.052" fill="#131426"/>
<path d="M86.665 44.7976C87.6405 44.7976 88.4883 45.6337 88.4883 46.6092C88.4883 47.457 87.6405 48.4325 86.665 48.4325C85.8405 48.4325 85.0044 47.457 85.0044 46.6092C85.0044 45.6337 85.8405 44.7976 86.665 44.7976ZM86.665 47.875C87.6405 47.875 88.0702 47.457 88.0702 46.6092C88.0702 45.6337 87.6405 45.2157 86.665 45.2157C85.8405 45.2157 85.4225 45.6337 85.4225 46.6092C85.4225 47.457 85.8405 47.875 86.665 47.875ZM86.247 45.6337H86.665C87.0831 45.6337 87.6405 45.6337 87.6405 46.1911C87.6405 46.6092 87.0831 46.6092 87.0831 46.6092L87.6405 47.4569H87.0831L86.665 46.6092H86.247V47.4569V45.6337ZM86.247 46.6092H86.665C87.0831 46.6092 87.0831 46.6092 87.0831 46.1911C87.0831 45.6337 87.0831 45.6337 86.665 45.6337H86.247" fill="#131426"/>
</svg>
