<svg width="210" height="64" viewBox="0 0 210 64" fill="none" xmlns="http://www.w3.org/2000/svg">
<path d="M102.661 16.0642L98.7535 47.7116H92.3472L96.3191 16.0642H102.661Z" fill="#131426"/>
<path d="M89.24 16.0637L85.1079 47.7111H78.7015L80.4313 35.9555C80.2391 35.9875 70.5014 35.9875 70.5014 35.9875L68.9639 47.7111H62.6216L66.7537 16.0637H73.096L71.4944 28.7163C70.2131 28.9725 69.0279 29.6132 68.035 30.5101C67.6506 30.8624 67.2662 31.2788 66.9459 31.7273C68.2592 30.5101 69.9889 29.7733 71.8467 29.7733H81.0719L82.8336 16.0637H89.24Z" fill="#131426"/>
<path d="M165.059 15.9998C164.771 17.9537 163.874 19.6834 162.529 20.9006C161.216 22.1178 159.486 22.8546 157.596 22.8546H153.56L150.549 47.7112H144.175L146.961 25.353C147.025 24.7765 147.154 24.2319 147.346 23.7194C148.371 23.3991 149.236 22.8546 150.036 22.1178C150.197 21.9897 150.325 21.8295 150.453 21.7014C149.332 22.4381 147.986 22.8546 146.577 22.8546H138.761L139.626 16.0318L165.059 15.9998Z" fill="#131426"/>
<path d="M81.4244 27.4351L81.3604 28.0757L81.4244 27.4351Z" fill="#131426"/>
<path d="M132.707 16.0637V16.0958L131.842 22.8865H109.196L109.58 19.9075C109.868 17.6973 111.726 16.0637 113.937 16.0637H132.707Z" fill="#131426"/>
<path d="M41.0964 25.3209C40.6799 27.6913 41.1924 28.0436 41.1924 28.0436C41.4167 28.2038 42.4097 28.5561 47.1504 28.8124C51.6028 29.0686 54.3575 29.7413 55.5747 30.8944C56.856 32.0796 57.1763 34.3859 56.5997 37.8774C56.2474 39.9915 55.7669 41.6891 55.1263 43.0345C54.4856 44.3798 53.7169 45.3728 52.788 46.0134C51.2504 47.0705 48.5598 47.6791 44.5878 47.8392C44.4277 47.8392 31.3267 47.8713 31.3267 47.8713L32.0634 41.9774H45.1964C47.3105 41.8813 48.1113 41.529 48.4316 41.3048C49.0402 40.8883 49.5207 39.7032 49.809 37.9735C50.0973 36.3078 49.809 35.7953 49.6809 35.6351C49.5848 35.507 49.0402 35.1226 46.9582 34.9945L43.9792 34.8023C39.2705 34.514 36.3877 33.8093 35.1705 32.6562C33.8892 31.439 33.5689 29.0686 34.2095 25.385C34.8181 21.7333 36.0674 19.2349 37.9252 17.9536C39.687 16.7684 42.6339 16.1598 46.9261 16.0958L59.4506 16.0637L58.6818 21.9576H47.3746C44.9081 21.9576 43.2745 22.1818 42.5058 22.6302C41.8011 23.0466 41.3206 23.9435 41.0964 25.3209Z" fill="#131426"/>
<path d="M124.699 29.8062L124.443 31.5359C124.091 34.0984 121.88 35.9883 119.318 35.9883H113.968L112.431 47.7119H106.057L108.427 29.8062H124.699Z" fill="#131426"/>
<path d="M161.824 41.4652L161.023 47.8396H162.785L163.586 41.4652H161.824ZM163.073 38.6785C162.529 38.6785 162.08 39.0949 162.048 39.7355C162.048 40.3121 162.401 40.6324 162.913 40.6324C163.49 40.6324 163.97 40.248 163.97 39.5754C163.938 39.0628 163.586 38.6785 163.073 38.6785Z" fill="#131426"/>
<path d="M168.903 41.3372C168.102 41.3372 167.366 41.7215 166.789 42.5544L166.917 41.4973H165.348C165.284 42.0739 164.451 47.8716 164.451 47.8716H166.212L166.533 45.0528C166.789 43.6434 167.462 42.8747 168.038 42.8747C168.487 42.8747 168.615 43.195 168.615 43.6434C168.615 43.8677 168.583 44.156 168.551 44.3481L168.134 47.8716H169.896L170.345 44.156C170.377 43.8356 170.441 43.3552 170.441 43.0669C170.441 41.9778 169.896 41.3372 168.903 41.3372Z" fill="#131426"/>
<path d="M175.246 42.8109C175.598 42.8109 175.854 42.875 176.047 42.9711L176.463 41.5296C176.207 41.4015 175.758 41.3054 175.246 41.3054C172.972 41.3054 171.338 43.0672 171.338 45.3414C171.338 47.0071 172.395 47.936 173.868 47.936C174.573 47.936 175.182 47.8079 175.566 47.6157V46.1743C175.246 46.3024 174.893 46.4305 174.381 46.4305C173.708 46.4305 173.196 45.9821 173.196 45.1172C173.196 43.9641 173.997 42.8109 175.246 42.8109Z" fill="#131426"/>
<path d="M177.648 45.5657C176.943 45.5657 176.463 46.1743 176.463 46.911C176.463 47.5196 176.847 48.0001 177.456 48.0001C178.161 48.0001 178.673 47.4556 178.673 46.6868C178.673 46.0141 178.257 45.5657 177.648 45.5657Z" fill="#131426"/>
</svg>
