<svg width="210" height="64" viewBox="0 0 210 64" fill="none" xmlns="http://www.w3.org/2000/svg">
<path d="M108.176 13.8097C107.896 13.7602 106.543 13.5293 104.959 13.5293C103.375 13.5293 102.022 13.7602 101.742 13.8097C101.577 13.8427 101.527 13.6778 101.643 13.5953C101.758 13.5128 104.959 11.0709 104.959 11.0709L108.275 13.5953C108.407 13.6778 108.341 13.8427 108.176 13.8097ZM102.649 29.6159C102.649 29.6159 102.484 29.6819 102.435 29.8304C103.111 30.3418 103.573 31.5133 104.959 31.5133C106.361 31.5133 106.823 30.3418 107.483 29.8304C107.434 29.6819 107.269 29.6159 107.269 29.6159C107.269 29.6159 106.394 29.8304 104.959 29.8304C103.524 29.8304 102.649 29.6159 102.649 29.6159ZM104.975 27.6525C104.58 27.6525 104.497 27.504 104.233 27.504C103.986 27.504 103.491 27.702 103.392 27.8835C103.392 27.9825 103.441 28.065 103.507 28.131C104.068 28.2135 104.332 28.5269 104.992 28.5269C105.652 28.5269 105.899 28.2135 106.477 28.131C106.543 28.0485 106.576 27.966 106.592 27.8835C106.493 27.702 105.998 27.504 105.751 27.504C105.437 27.504 105.355 27.6525 104.975 27.6525ZM136.852 33.6912C136.819 34.4501 136.736 35.2091 136.654 35.9515C133.04 36.5455 131.754 33.3282 128.041 33.4932C128.256 34.2851 128.437 35.0771 128.586 35.902C131.638 35.902 132.875 38.7564 136.274 38.3274C136.093 39.2019 135.878 40.0598 135.631 40.9178C132.941 41.1817 132.001 38.5089 128.883 38.5914C128.916 39.0369 128.916 39.4823 128.916 39.9278L128.899 40.6703L134.938 42.9801C134.624 43.8381 134.261 44.6796 133.882 45.5045C132.067 45.4055 131.44 43.0791 128.685 43.2606C128.602 43.8546 128.503 44.4486 128.371 45.026C130.764 44.861 131.292 47.0719 133.007 47.2369C132.562 48.0289 132.1 48.8043 131.605 49.5633C130.582 49.0188 129.708 47.3689 127.777 47.2699C127.975 46.6594 128.157 46.0325 128.289 45.4055C126.573 45.4055 124.626 44.7456 122.976 43.2441C123.504 40.2083 118.802 37.123 118.802 34.9121C118.802 32.5032 120.023 31.1668 120.023 27.9165C120.023 25.5076 118.851 22.8842 117.086 21.1023C116.739 20.7559 116.393 20.4754 115.997 20.2279C117.614 22.2408 118.868 24.6167 118.868 27.372C118.868 30.4243 117.449 32.0412 117.449 34.8626C117.449 37.6839 121.574 40.1258 121.574 43.0461C121.574 44.1846 121.211 45.3065 120.006 47.5009C121.854 49.3488 124.279 50.3552 125.83 50.3552C126.342 50.3552 126.606 50.2068 126.787 49.8108C126.936 49.4643 127.084 49.1178 127.233 48.7713C128.916 48.8373 129.675 50.3552 130.615 50.9657C130.104 51.6422 129.576 52.3186 129.015 52.9456C128.388 52.2526 127.563 51.0977 126.325 50.7677C126.111 51.1967 125.88 51.6092 125.632 52.0217C126.688 52.3021 127.414 53.3746 127.975 54.0675C127.365 54.6945 126.738 55.2885 126.094 55.8659C125.682 55.239 125.055 54.4305 124.345 53.9851C124.081 54.348 123.801 54.6945 123.52 55.0245C124.131 55.437 124.659 56.1794 125.005 56.7734C124.246 57.3839 123.471 57.9448 122.663 58.4893C122.267 55.239 117.845 53.0281 119.033 49.2663C118.637 49.9263 118.175 50.7512 118.175 51.7577C118.175 54.48 121.079 56.6414 121.31 59.3473C120.716 59.7102 120.089 60.0402 119.462 60.3702C119.363 57.4004 116.277 54.1335 116.277 51.6917C116.277 48.9693 119.841 46.2305 119.841 43.0131C119.841 39.7958 115.716 37.5684 115.716 34.7306C115.716 31.9093 117.465 30.2758 117.465 26.6625C117.465 24.0062 116.211 21.3333 114.264 19.6174C113.918 19.3204 113.588 19.073 113.176 18.8585C115.007 21.0528 116.079 23.0657 116.079 26.0851C116.079 29.4839 114.066 31.3813 114.066 34.7141C114.066 38.0469 118.109 39.9113 118.109 43.0131C118.109 46.115 114.347 48.7383 114.347 51.9392C114.347 54.843 117.663 57.7468 117.713 61.1952C116.987 61.5086 116.244 61.8056 115.502 62.0696C115.931 58.5883 112.186 54.9915 112.186 52.1536C112.186 49.0518 116.096 46.379 116.096 43.0296C116.096 39.6803 112.12 38.1294 112.12 34.6811C112.12 31.2493 114.561 29.3354 114.561 25.5406C114.561 22.5873 113.093 19.9144 110.965 18.2645L110.833 18.1655C110.635 18.017 110.47 18.1985 110.602 18.38C112.12 20.2609 112.928 22.1748 112.928 24.9961C112.928 28.4774 110.14 31.2988 110.14 34.6646C110.14 38.6409 113.901 39.7793 113.901 43.0296C113.901 46.28 109.876 48.8868 109.876 52.3516C109.876 55.5525 113.687 59.1163 113.027 62.8286C112.268 63.0266 111.493 63.1915 110.701 63.34C111.41 58.7368 107.681 55.4205 107.681 52.4011C107.681 49.1343 111.856 46.2305 111.856 43.0296C111.856 40.0268 108.869 39.0369 108.473 35.9515C108.424 35.5391 108.077 35.2256 107.615 35.2916C107.005 35.4071 106.229 35.803 105.008 35.803C103.788 35.803 103.012 35.4071 102.402 35.2916C101.94 35.2091 101.593 35.5226 101.544 35.9515C101.148 39.0369 98.1614 40.0103 98.1614 43.0296C98.1614 46.214 102.336 49.1343 102.336 52.4011C102.336 55.4205 98.5903 58.7368 99.3163 63.34C98.5243 63.1915 97.7489 63.0266 96.9899 62.8286C96.33 59.1328 100.141 55.569 100.141 52.3516C100.141 48.8868 96.1155 46.28 96.1155 43.0296C96.1155 39.7628 99.8773 38.6409 99.8773 34.6646C99.8773 31.2988 97.0724 28.4774 97.0724 24.9961C97.0724 22.1748 97.8809 20.2609 99.3988 18.38C99.5473 18.1985 99.3823 18.017 99.1678 18.1655L99.0358 18.2645C96.9074 19.9144 95.439 22.5708 95.439 25.5406C95.439 29.3354 97.8809 31.2493 97.8809 34.6811C97.8809 38.1129 93.9046 39.6803 93.9046 43.0296C93.9046 46.379 97.8149 49.0518 97.8149 52.1536C97.8149 54.9915 94.0861 58.5883 94.4986 62.0696C93.7396 61.8056 93.0136 61.5251 92.2877 61.1952C92.3372 57.7468 95.6535 54.843 95.6535 51.9392C95.6535 48.7383 91.8917 46.1315 91.8917 43.0131C91.8917 39.8948 95.934 38.0469 95.934 34.7141C95.934 31.3813 93.9211 29.4839 93.9211 26.0851C93.9211 23.0492 94.977 21.0528 96.8249 18.8585C96.4124 19.073 96.0825 19.3039 95.736 19.6174C93.7891 21.3333 92.5352 24.0227 92.5352 26.6625C92.5352 30.2758 94.2841 31.9093 94.2841 34.7306C94.2841 37.5519 90.1593 39.7793 90.1593 43.0131C90.1593 46.2305 93.7231 48.9693 93.7231 51.6917C93.7231 54.1335 90.6543 57.3839 90.5388 60.3702C89.9118 60.0567 89.3013 59.7102 88.6909 59.3473C88.9219 56.6414 91.8257 54.48 91.8257 51.7577C91.8257 50.7512 91.3637 49.9263 90.9677 49.2663C92.1557 53.0281 87.7339 55.2555 87.3379 58.4893C86.5295 57.9448 85.754 57.3839 84.9951 56.7734C85.3416 56.1794 85.8695 55.437 86.48 55.0245C86.1995 54.6945 85.919 54.348 85.655 53.9851C84.9456 54.414 84.3021 55.2225 83.9061 55.8659C83.2627 55.2885 82.6357 54.6945 82.0252 54.0675C82.5862 53.3746 83.3122 52.3021 84.3681 52.0217C84.1206 51.6092 83.8896 51.1967 83.6751 50.7677C82.4542 51.0977 81.6128 52.2526 80.9858 52.9456C80.4248 52.3021 79.8804 51.6422 79.3854 50.9657C80.3093 50.3552 81.0848 48.8373 82.7677 48.7713C82.9162 49.1178 83.0482 49.4643 83.2132 49.8108C83.3947 50.2068 83.6586 50.3552 84.1701 50.3552C85.721 50.3552 88.1464 49.3488 89.9943 47.5009C88.7899 45.3065 88.4269 44.1846 88.4269 43.0461C88.4269 40.1423 92.5517 37.7004 92.5517 34.8626C92.5517 32.0247 91.1327 30.4243 91.1327 27.372C91.1327 24.6167 92.3702 22.2408 94.0036 20.2279C93.6076 20.4754 93.2446 20.7559 92.9146 21.1023C91.1492 22.8842 89.9778 25.5076 89.9778 27.9165C89.9778 31.1668 91.1987 32.5032 91.1987 34.9121C91.1987 37.123 86.4965 40.2083 87.0245 43.2441C85.3911 44.7456 83.4277 45.4055 81.7118 45.4055C81.8602 46.0325 82.0417 46.6594 82.2232 47.2699C80.2928 47.3689 79.4184 49.0188 78.3954 49.5633C77.9005 48.8043 77.422 48.0289 76.993 47.2369C78.7089 47.0554 79.2204 44.8445 81.6293 45.026C81.4973 44.4486 81.3983 43.8546 81.3158 43.2606C78.5604 43.0791 77.9335 45.4055 76.1186 45.5045C75.7391 44.6796 75.3761 43.8381 75.0626 42.9801L81.1013 40.6703L81.0848 39.9278C81.0848 39.4823 81.1013 39.0369 81.1178 38.5914C78.016 38.5254 77.059 41.1817 74.3697 40.9178C74.1222 40.0763 73.9077 39.2019 73.7262 38.3274C77.125 38.7399 78.3459 35.8855 81.4148 35.902C81.5468 35.0771 81.7283 34.2851 81.9592 33.4932C78.2634 33.3282 76.96 36.5455 73.3467 35.9515C73.2477 35.2091 73.1817 34.4501 73.1487 33.6912C77.356 34.1531 78.9234 30.7048 82.7512 31.1338C83.1142 30.2263 83.5267 29.3354 84.0051 28.4774C79.2039 27.636 77.587 31.6453 73.1157 31.0348C73.5282 13.8097 87.6349 0 104.975 0C122.316 0 136.406 13.8097 136.885 31.0183C132.413 31.6288 130.797 27.6195 125.995 28.4609C126.474 29.3189 126.886 30.1933 127.249 31.1173C131.077 30.7048 132.661 34.1531 136.852 33.6912ZM91.2482 20.2939C88.8889 19.3369 86.051 19.5514 83.6256 21.1188C83.2462 18.8585 82.0252 16.8456 80.2763 15.6411C80.0288 15.4762 79.7814 15.6246 79.7979 15.9051C80.1608 20.6899 77.3725 24.8311 73.9407 28.4774C77.488 29.5499 80.4908 24.9796 85.0941 26.58C86.7275 24.1217 88.8229 21.9933 91.2482 20.2939ZM104.975 17.4065C102.006 17.4065 99.5308 19.0895 98.8708 21.2508C98.8213 21.4158 98.8873 21.5313 99.0853 21.4323C99.6133 21.1848 100.224 21.0858 100.884 21.0858C102.088 21.0858 103.161 21.5313 103.788 22.3068C104.068 23.2307 104.085 24.5507 103.771 25.3261C103.276 25.2106 103.095 24.8311 102.6 24.8311C102.105 24.8311 101.742 25.1776 100.917 25.1776C100.092 25.1776 99.9928 24.7816 99.4483 24.7816C98.8048 24.7816 98.6893 25.4416 98.6893 26.1841C98.6893 29.4839 101.725 34.0376 104.959 34.0376C108.193 34.0376 111.229 29.5004 111.229 26.1841C111.229 25.4416 111.08 24.8146 110.404 24.7156C110.074 24.9631 109.76 25.1611 109.001 25.1611C108.176 25.1611 107.945 24.8146 107.467 24.8146C106.873 24.8146 106.939 26.0521 106.246 26.1181C105.784 24.9961 105.767 23.5772 106.147 22.2903C106.774 21.5148 107.846 21.0693 109.051 21.0693C109.711 21.0693 110.321 21.1848 110.849 21.4158C111.047 21.4983 111.113 21.3993 111.064 21.2343C110.42 19.073 107.929 17.4065 104.975 17.4065ZM109.694 22.1418C108.985 22.1418 108.143 22.3563 107.632 22.9502C107.582 23.1152 107.582 23.3462 107.648 23.4947C108.935 23.0492 110.074 23.0327 110.618 23.6432C110.915 23.3792 110.998 23.1317 110.998 22.8678C110.998 22.4388 110.569 22.1418 109.694 22.1418ZM99.3163 23.6432C99.9433 23.0162 101.247 23.0492 102.616 23.5442C102.682 22.8677 101.461 22.1253 100.257 22.1253C99.3823 22.1253 98.9368 22.4223 98.9368 22.8512C98.9368 23.1482 99.0193 23.3792 99.3163 23.6432ZM119.759 12.4733C117.416 12.6383 115.386 13.4468 113.736 14.7832C114.429 12.8033 115.32 11.0709 116.442 9.38799C113.456 9.70147 110.965 10.7904 109.15 12.6548L107.731 8.92601L110.882 6.13766L106.658 5.84068L104.975 1.9139L103.293 5.84068L99.0688 6.13766L102.22 8.92601L100.801 12.6548C98.9863 10.7904 96.4949 9.70147 93.5086 9.38799C94.6305 11.0709 95.5215 12.8033 96.2145 14.7832C94.5646 13.4468 92.5352 12.6383 90.1923 12.4733C91.5947 14.2717 92.8486 16.2021 93.7561 18.2645C93.8551 18.4955 94.0861 18.578 94.3336 18.446C97.5344 16.8456 101.148 15.9546 104.975 15.9546C108.803 15.9546 112.417 16.8456 115.617 18.446C115.865 18.5615 116.079 18.4955 116.178 18.2645C117.102 16.2021 118.34 14.2717 119.759 12.4733ZM124.857 26.58C129.444 24.9961 132.463 29.5499 136.01 28.4774C132.578 24.8311 129.774 20.6734 130.153 15.9051C130.17 15.6246 129.922 15.4597 129.675 15.6411C127.926 16.8456 126.705 18.8585 126.325 21.1188C123.9 19.5514 121.046 19.3369 118.703 20.2939C121.112 21.9933 123.207 24.1217 124.857 26.58Z" fill="#131426"/>
<path d="M127.398 59.6277V64H126.82V59.6277H125.203V59.0833H129.031V59.6277H127.398ZM129.708 59.0833H130.566L132.232 62.9276H132.248L133.931 59.0833H134.773V64H134.179V59.8752H134.162L132.397 64H132.051L130.285 59.8752V64H129.708V59.0833Z" fill="#131426"/>
</svg>
