<svg width="210" height="64" viewBox="0 0 210 64" fill="none" xmlns="http://www.w3.org/2000/svg">
<path fill-rule="evenodd" clip-rule="evenodd" d="M186.978 29.4555C186.978 23.9811 184.824 20.7503 181.055 20.7503C181.055 20.7503 180.337 20.84 179.978 20.84C178.632 21.0195 178.273 21.3785 178.273 23.0836V36.1864C178.273 37.9813 179.349 38.071 180.965 38.1608C184.824 38.3403 186.978 35.0197 186.978 29.4555ZM188.862 21.4682C190.657 23.3529 191.645 26.135 191.645 29.5453C191.645 33.3145 190.388 36.4556 188.055 38.3403C186.26 39.7762 184.016 40.4941 180.606 40.4941C176.747 40.4941 174.144 40.1352 173.247 40.0454C172.349 39.8659 171.901 39.7762 171.901 39.148C171.901 38.6992 172.17 38.2505 172.619 38.2505H173.247C173.426 38.2505 173.696 38.071 173.785 37.8018C173.875 37.5326 173.875 37.3531 173.875 36.5454V22.5452C173.875 21.7375 173.875 21.558 173.785 21.2887C173.696 21.0195 173.426 20.84 173.247 20.84H172.619C172.17 20.84 171.901 20.481 171.901 19.9426C171.901 19.2246 172.349 19.1349 173.247 19.0451C174.144 18.9554 176.657 18.5964 180.606 18.5964C184.555 18.6861 186.978 19.4938 188.862 21.4682ZM167.144 29.5453C167.144 24.2503 164.99 20.9298 161.49 20.9298C158.08 20.9298 155.926 24.2503 155.926 29.635C155.926 34.93 157.99 38.1608 161.49 38.1608C164.99 38.1608 167.144 34.8402 167.144 29.5453ZM146.682 29.5453C146.682 24.2503 144.528 20.9298 141.028 20.9298C137.618 20.9298 135.464 24.2503 135.464 29.635C135.464 34.93 137.528 38.1608 141.028 38.1608C144.528 38.1608 146.682 34.8402 146.682 29.5453ZM161.49 18.6861C167.683 18.6861 171.721 22.9041 171.721 29.4555C171.721 36.1864 167.683 40.4044 161.4 40.4044C156.375 40.4044 152.785 37.5326 151.618 32.9556V32.8658C151.529 32.3274 151.08 32.3274 150.9 32.8658C150.9 32.8658 150.9 32.8658 150.9 32.9556C149.734 37.6223 146.144 40.4044 141.028 40.4044C134.836 40.4044 130.887 36.0966 130.887 29.635C130.887 22.9041 134.836 18.6861 141.118 18.6861C146.234 18.6861 149.913 21.558 150.99 26.2247C151.08 26.7632 151.529 26.7632 151.618 26.2247C152.785 21.4682 156.375 18.6861 161.49 18.6861ZM131.156 22.0067L130.708 19.8528C130.618 19.3143 130.259 19.0451 129.631 19.0451H116.169C115.092 19.0451 114.733 19.3143 114.733 19.9426C114.733 20.3913 115.092 20.84 115.541 20.84H116.169C116.349 20.84 116.618 21.0195 116.708 21.2887C116.797 21.558 116.797 21.7375 116.797 22.5452V36.5454C116.797 37.3531 116.797 37.5326 116.708 37.8018C116.618 38.071 116.349 38.2505 116.169 38.2505H115.541C115.092 38.2505 114.733 38.6095 114.733 39.148C114.733 39.8659 115.092 40.0454 116.169 40.0454H121.913C123.079 40.0454 123.438 39.8659 123.438 39.148C123.438 38.6992 123.079 38.2505 122.631 38.2505H121.913C121.644 38.2505 121.374 38.071 121.285 37.8018C121.195 37.6223 121.195 37.4428 121.195 36.5454V31.4299C121.195 30.7119 121.285 30.4427 121.464 30.2632C121.644 30.1735 121.823 30.1735 122.72 30.1735H125.323C126.669 30.1735 126.849 30.2632 126.938 30.8914V31.0709C127.028 31.6094 127.297 31.8786 127.746 31.8786C128.374 31.8786 128.644 31.5196 128.644 30.4427V27.8401C128.644 26.7632 128.464 26.4042 127.746 26.4042C127.297 26.4042 127.028 26.6734 126.938 27.2119V27.3914C126.849 28.0196 126.669 28.1093 125.323 28.1093H122.72C121.823 28.1093 121.644 28.1093 121.464 28.0196C121.285 27.9299 121.195 27.5709 121.195 26.8529V23.1734C121.195 21.4682 121.374 21.2887 123.079 21.2887H127.118C128.554 21.2887 129.182 21.3785 129.541 22.1862C129.721 22.5452 129.81 22.8144 129.81 22.8144C129.99 23.2631 130.349 23.2631 130.618 23.2631C131.067 23.2631 131.336 22.8144 131.156 22.0067ZM204.658 30.1735C203.67 29.1863 202.863 28.5581 200.35 26.7632C199.722 26.3144 199.183 25.9555 198.824 25.6862C198.196 25.2375 197.747 24.699 197.388 24.2503C197.119 23.8913 197.029 23.4426 197.029 22.9939C197.029 21.7375 197.927 20.9298 199.363 20.9298C200.35 20.9298 201.427 21.2887 202.324 21.9169C202.952 22.4554 203.132 22.5452 203.85 23.6221C204.119 23.9811 204.299 24.1606 204.658 24.1606C205.196 24.1606 205.555 23.8016 205.555 23.4426C205.555 23.3529 205.555 23.1734 205.465 22.9939L204.747 19.5836C204.658 19.0451 204.299 18.6861 203.85 18.6861C203.581 18.6861 203.491 18.6861 203.222 18.9554C202.952 19.1349 202.683 19.2246 202.504 19.2246C202.414 19.2246 202.234 19.2246 202.055 19.1349C201.606 19.0451 201.337 18.9554 201.247 18.9554C200.35 18.7759 199.452 18.6861 198.555 18.6861C195.145 18.6861 192.811 20.6605 192.811 23.7118C192.811 24.9683 193.17 26.0452 193.978 27.0324C194.965 28.1093 195.234 28.3786 198.196 30.4427C199.991 31.6991 200.798 32.4171 201.516 33.1351C202.145 33.853 202.504 34.6607 202.504 35.4684C202.504 37.0838 201.157 38.2505 199.093 38.2505C197.298 38.2505 195.593 37.2633 194.516 35.7377L194.068 35.1094C193.888 34.8402 193.619 34.6607 193.26 34.6607C192.721 34.6607 192.273 35.1094 192.273 35.6479C192.273 35.8274 192.273 36.0966 192.362 36.2761L193.17 39.4172C193.35 40.1352 193.619 40.4941 194.157 40.4941C194.427 40.4941 194.606 40.4044 194.875 40.2249C195.145 39.9557 195.234 39.9557 195.504 39.9557C195.683 39.9557 195.773 39.9557 196.222 40.1352C197.119 40.4044 198.375 40.5839 199.452 40.5839C203.581 40.5839 206.273 38.1608 206.273 34.571C206.363 32.7761 205.734 31.2504 204.658 30.1735ZM63.3991 20.5708C66.0914 21.558 67.1684 24.5195 67.1684 29.0965C67.1684 34.571 64.9248 38.071 61.335 38.071C57.6554 38.071 55.5015 34.7505 55.5015 29.1863C55.5015 25.5965 56.04 22.8144 58.5529 20.3015C61.0657 17.7887 63.3991 18.1477 65.7325 15.1861C66.7197 13.9297 66.7197 12.8527 65.912 12.6732C65.194 12.4937 64.7453 13.3912 64.1171 13.8399C61.6042 15.4553 58.8221 13.9297 57.2964 12.2245C55.7708 10.4296 53.7964 10.5193 52.6297 10.7886C52.0912 10.8783 51.822 10.5193 52.3605 10.0706C53.6169 9.08343 56.2195 8.99368 57.8349 10.5193C59.1811 11.7758 61.0657 12.763 62.4119 12.4937C63.2196 12.3142 63.3093 11.4168 62.4119 11.0578C59.8093 10.1604 60.0785 7.19879 56.5785 6.21159C52.4502 5.04491 48.6809 8.90394 47.604 12.8527C47.3348 13.9297 47.963 14.6476 49.0399 14.1989C52.4502 12.6732 53.3477 14.8271 56.3092 15.9938C57.6554 16.5323 59.1811 16.3528 60.0785 16.263C60.7965 16.0835 60.7965 16.8912 60.4375 16.981C58.4631 17.6092 56.4887 18.6861 55.2323 19.5836C52.3605 21.4682 50.7451 24.8785 50.7451 29.276C50.7451 36.0966 54.9631 40.5839 61.335 40.5839C67.9761 40.5839 72.1043 36.0966 72.1043 29.0965C72.1043 25.058 70.8479 22.0964 68.2453 20.2118C66.8094 19.1349 65.4632 18.6861 64.0273 18.7759C62.3222 18.7759 62.1427 20.0323 63.3991 20.5708ZM31.4499 20.7503C31.9884 20.6605 32.7063 20.7503 32.7063 22.3657V36.4556C32.7063 37.2633 32.7063 37.4428 32.6166 37.712C32.5269 37.8915 32.2576 38.071 32.0781 38.071H31.4499C31.0012 38.071 30.6422 38.5197 30.6422 38.9685C30.6422 39.6864 31.0012 39.8659 32.0781 39.8659H37.7321C38.7193 39.8659 39.0782 39.6864 39.0782 38.9685C39.0782 38.43 38.7192 38.071 38.3603 38.071H37.7321C37.4628 38.071 37.1936 37.8915 37.1038 37.712C37.0141 37.4428 37.0141 37.2633 37.0141 36.4556V31.6991C37.0141 30.2632 37.1038 30.1735 38.2705 30.1735H42.4885C43.1168 30.1735 43.386 30.2632 43.5655 30.4427C43.745 30.6222 43.745 30.7119 43.745 31.8786V36.4556C43.745 37.2633 43.745 37.4428 43.6552 37.712C43.5655 37.8915 43.2962 38.071 43.1168 38.071H42.4885C42.0398 38.071 41.6808 38.5197 41.6808 38.9685C41.6808 39.6864 42.0398 39.8659 43.1168 39.8659H48.7707C49.8476 39.8659 50.2066 39.6864 50.2066 38.9685C50.2066 38.5197 49.8476 38.071 49.3989 38.071H48.7707C48.5912 38.071 48.322 37.8915 48.2322 37.712C48.1425 37.4428 48.1425 37.2633 48.1425 36.4556V22.3657C48.1425 21.558 48.1425 21.3785 48.2322 21.1092C48.322 20.9298 48.5912 20.7503 48.7707 20.7503H49.4886C49.9374 20.7503 50.2963 20.3913 50.2963 19.8528C50.2963 19.1349 49.9374 18.9554 48.8604 18.9554H43.2065C42.1296 18.9554 41.7706 19.1349 41.7706 19.8528C41.7706 20.3913 42.1296 20.7503 42.5783 20.7503H43.2065C43.386 20.7503 43.6552 20.9298 43.745 21.1092C43.8347 21.3785 43.8347 21.558 43.8347 22.3657V26.2247C43.8347 27.3914 43.8347 27.4811 43.6552 27.6606C43.4757 27.8401 43.2065 27.9299 42.5783 27.9299H38.3603C37.1936 27.9299 37.1038 27.8401 37.1038 26.4042V22.3657C37.1038 21.558 37.1038 21.3785 37.1936 21.1092C37.2833 20.9298 37.5526 20.7503 37.8218 20.7503H38.45C38.8987 20.7503 39.2577 20.3913 39.2577 19.8528C39.2577 19.1349 38.8987 18.9554 37.9115 18.9554H27.1422C26.3345 18.9554 25.9755 19.2246 25.9755 19.8528C25.9755 20.3913 26.3345 20.6605 26.9627 20.7503C27.6806 20.84 28.0396 21.1092 28.0396 21.558C28.0396 21.7375 28.0396 22.0067 27.9499 22.2759C27.9499 22.2759 24.9883 32.3274 24.5396 33.853C24.4498 34.1223 24.1806 34.1223 24.0908 33.853C23.6421 32.3274 20.5908 22.7247 20.5908 22.7247C20.3216 22.0067 20.2318 21.7375 20.2318 21.3785C20.2318 20.84 20.4113 20.6605 21.3087 20.5708C22.0267 20.481 22.2959 20.2118 22.2959 19.7631C22.2959 19.2246 21.937 18.9554 21.219 18.9554H15.1163C14.3984 18.9554 14.0394 19.3143 14.0394 19.9426C14.0394 20.3913 14.3086 20.6605 14.9369 20.7503C15.6548 20.9298 15.9241 21.1092 16.1035 21.558C16.1933 21.6477 16.283 21.9169 16.3728 22.2759C16.3728 22.2759 17.4497 25.417 17.4497 25.5965C17.6292 26.2247 17.5395 26.8529 17.4497 27.3914C17.36 27.5709 15.7446 32.4171 15.1163 34.1222C15.0266 34.3915 14.7574 34.3915 14.6676 34.1222C14.1292 32.5068 10.7189 22.7247 10.7189 22.7247L10.2701 22.0964C10.1804 21.8272 10.1804 21.6477 10.1804 21.3785C10.1804 20.84 10.4496 20.6605 11.1676 20.5708C11.9753 20.481 12.2445 20.3015 12.2445 19.7631C12.2445 19.2246 11.9753 18.9554 11.2573 18.9554H4.79569C4.07773 18.9554 3.71875 19.2246 3.71875 19.7631C3.71875 20.3015 3.89824 20.481 4.6162 20.5708C5.60339 20.7503 5.78288 20.9298 6.23161 22.1862L12.3343 38.6095C12.783 39.7762 13.2317 40.1352 14.1292 40.1352C14.5779 40.1352 14.9369 39.9557 15.2061 39.7762C15.4753 39.5069 15.5651 39.3275 15.8343 38.5197C15.8343 38.5197 18.6164 30.8017 18.7061 30.5325C18.7959 30.2632 19.0651 30.2632 19.1549 30.5325C19.2446 30.8017 21.8472 38.5197 21.8472 38.5197C22.2062 39.6864 22.6549 40.0454 23.6421 40.0454C24.5396 40.0454 24.9883 39.5967 25.437 38.071L30.373 22.0067C30.5525 21.1092 30.9114 20.7503 31.4499 20.7503ZM81.2583 37.712C80.0019 37.712 79.5532 37.6223 79.1942 37.4428C78.8352 37.2633 78.7455 36.9043 78.7455 35.5582V22.3657C78.7455 21.558 78.7455 21.3785 78.8352 21.1092C78.925 20.84 79.1942 20.6605 79.4634 20.6605H80.1814C80.6301 20.6605 80.9891 20.3015 80.9891 19.7631C80.9891 19.0451 80.6301 18.8656 79.4634 18.8656H73.7198C72.6428 18.8656 72.2838 19.0451 72.2838 19.7631C72.2838 20.3015 72.6428 20.6605 73.0915 20.6605H73.7198C73.8992 20.6605 74.1685 20.84 74.2582 21.1092C74.348 21.3785 74.348 21.4682 74.348 22.3657V36.5454C74.348 37.3531 74.348 37.4428 74.2582 37.712C74.1685 37.8915 73.989 38.071 73.7198 38.071H73.0915C72.6428 38.071 72.2838 38.43 72.2838 38.8787C72.2838 39.5967 72.6428 39.7762 73.63 39.7762H85.2968C85.9251 39.7762 86.284 39.5967 86.3738 38.9685L86.8225 36.5454C87.002 35.7377 86.7328 35.2889 86.1046 35.2889C85.8353 35.2889 85.4763 35.4684 85.2968 35.9171C85.2968 36.0069 85.2071 36.0966 85.0276 36.4556C84.6686 37.2633 83.8609 37.6223 82.784 37.6223C83.0532 37.712 81.2583 37.712 81.2583 37.712ZM103.605 35.3787C103.336 35.3787 102.977 35.5582 102.797 36.0069C102.797 36.0966 102.707 36.1864 102.528 36.5454C102.169 37.3531 101.361 37.712 100.284 37.712H97.1432C96.156 37.712 95.7073 37.6223 95.2585 37.5326C94.8098 37.3531 94.6303 36.9941 94.6303 35.3787V31.4299C94.6303 30.7119 94.7201 30.4427 94.8995 30.2632C95.079 30.1735 95.2585 30.1735 96.156 30.1735H97.5919C98.9381 30.1735 99.1176 30.2632 99.2073 30.8914V31.0709C99.297 31.6094 99.5663 31.8786 100.015 31.8786C100.643 31.8786 100.912 31.5196 100.912 30.4427V27.8401C100.912 26.7632 100.733 26.4042 100.015 26.4042C99.5663 26.4042 99.297 26.6734 99.2073 27.2119V27.3914C99.1176 28.0196 98.9381 28.1093 97.5919 28.1093H96.156C95.2585 28.1093 94.9893 28.1093 94.8995 28.0196C94.7201 27.9299 94.6303 27.5709 94.6303 26.8529V22.9939C94.6303 21.2887 94.8098 21.1092 96.515 21.1092H99.4765C100.912 21.1092 101.541 21.199 101.9 22.0067C102.079 22.3657 102.169 22.6349 102.169 22.7247C102.348 23.1734 102.707 23.1734 102.977 23.1734C103.515 23.1734 103.784 22.7246 103.695 21.9169L103.246 19.7631C103.156 19.2246 102.797 18.9554 102.169 18.9554H89.6943C88.6174 18.9554 88.2584 19.2246 88.2584 19.8528C88.2584 20.3015 88.6174 20.7503 89.0661 20.7503H89.6943C89.8738 20.7503 90.1431 20.9298 90.2328 21.199C90.3226 21.4682 90.3226 21.6477 90.3226 22.4554V36.4556C90.3226 37.2633 90.3226 37.4428 90.2328 37.712C90.1431 37.8915 89.9636 38.1608 89.6943 38.1608H89.0661C88.6174 38.1608 88.2584 38.5197 88.2584 38.9685C88.2584 39.6864 88.6174 39.8659 89.6943 39.8659H101.9H102.707C103.336 39.8659 103.695 39.6864 103.784 39.0582L104.233 36.6351C104.502 35.8274 104.143 35.3787 103.605 35.3787ZM143.631 47.4045C143.093 47.4045 143.093 48.1225 143.093 48.4814C143.093 48.8404 143.182 49.1994 143.631 49.1994H146.234C146.682 49.1994 146.862 49.3789 146.862 49.7379V57.3662C146.862 57.9046 147.221 57.9046 147.849 57.9046C148.477 57.9046 148.836 57.8149 148.836 57.2764V49.6481C148.836 49.1994 149.105 49.1096 149.464 49.1096H151.977C152.426 49.1096 152.516 48.7507 152.516 48.2122C152.516 47.4942 152.247 47.3147 151.888 47.3147H143.631V47.4045ZM129.003 47.4045C128.554 47.4045 128.374 47.6737 128.374 48.1225V57.1867C128.374 57.7252 128.554 57.9944 129.003 57.9944H136.99C137.439 57.9944 137.528 57.6354 137.528 57.0969C137.528 56.379 137.349 56.1097 136.99 56.1097H130.798C130.528 56.1097 130.259 55.9303 130.259 55.5713V54.0456C130.259 53.6866 130.528 53.5071 130.798 53.5071H134.387C134.746 53.5071 134.926 53.0584 134.926 52.6097C134.926 52.0712 134.836 51.7122 134.387 51.7122H130.798C130.528 51.7122 130.259 51.5328 130.259 51.2635V49.8276C130.259 49.5584 130.439 49.3789 130.708 49.3789H136.99C137.528 49.3789 137.618 48.9302 137.618 48.3917C137.618 47.8532 137.528 47.4942 137.08 47.4942H129.003V47.4045ZM113.836 47.4045C113.118 47.4045 112.849 47.4942 112.849 48.0327V57.3662C112.849 57.8149 113.118 57.9944 113.746 57.9944C114.284 57.9944 114.823 57.9944 114.823 57.3662V54.3148C114.823 53.8661 115.092 53.5071 115.451 53.5071C116.079 53.5071 116.528 53.5969 116.977 53.9559L120.297 57.5457C120.567 57.8149 120.746 57.9944 121.644 57.9944C122.451 57.9944 122.99 57.7252 122.451 57.0969C122.092 56.6482 118.413 52.6994 118.413 52.6994C118.143 52.4302 118.054 52.0712 118.413 51.802C118.413 51.802 121.464 49.0199 121.733 48.7507C122.092 48.3917 122.002 48.0327 121.644 47.6737C121.195 47.3147 120.746 47.225 120.387 47.6737C120.387 47.6737 116.977 50.8148 116.618 51.1738C116.349 51.443 116.169 51.6225 115.361 51.6225C115.092 51.6225 114.913 51.443 114.913 50.9045V48.0327C114.733 47.4942 114.374 47.4045 113.836 47.4045ZM98.1304 49.1994H101.361C102.438 49.1994 103.336 49.7379 103.336 50.9045C103.336 52.0712 102.438 52.6097 101.361 52.6097H98.1304C97.7714 52.6097 97.4124 52.4302 97.4124 51.9815V49.6481C97.4124 49.3789 97.7714 49.1994 98.1304 49.1994ZM105.22 50.9943C105.22 48.7507 103.605 47.4045 101.451 47.4045H95.9765C95.7073 47.4045 95.5278 47.584 95.5278 47.7635V57.3662C95.5278 57.8149 95.797 57.9944 96.156 57.9944C96.515 57.9944 97.4124 58.0841 97.4124 57.5457V55.0328C97.4124 54.7636 97.6816 54.4943 97.9509 54.4943H100.284C100.643 54.4943 100.912 54.6738 101.092 54.9431L102.707 57.4559C102.977 57.8149 103.336 57.9046 103.874 57.9046C104.861 57.9046 105.13 57.5457 104.861 57.0969C104.682 56.738 103.156 54.6738 103.066 54.4943C102.887 54.2251 102.977 54.1354 103.246 53.8661C103.874 53.5071 105.22 52.8789 105.22 50.9943ZM81.7968 53.6866C81.8865 53.5071 82.9635 51.3533 83.0532 51.084C83.143 50.8148 83.4122 50.8148 83.5917 51.084C83.6814 51.3533 84.7584 53.5969 84.8481 53.6866C84.9379 53.8661 84.7584 54.0456 84.5789 54.0456H82.066C81.7968 54.1354 81.707 53.9559 81.7968 53.6866ZM77.9378 57.3662C77.6685 57.9944 78.566 57.9944 78.8352 57.9944C79.1044 57.9944 79.8224 57.9046 79.9122 57.6354L80.5404 56.4687C80.7199 56.1097 80.8993 55.8405 81.1686 55.8405H85.4763C85.6558 55.8405 85.8353 56.02 85.9251 56.1995L86.643 57.6354C86.8225 57.9944 87.2712 57.9944 87.6302 57.9944C87.9892 57.9944 88.8866 57.9046 88.7071 57.4559C88.6174 57.1867 84.2199 47.7635 84.2199 47.7635C84.0404 47.4942 83.8609 47.3147 83.4122 47.3147C82.9635 47.3147 82.6942 47.4942 82.6045 47.7635L77.9378 57.3662ZM66.4504 51.8917L69.5017 47.7635C69.6812 47.4942 69.9505 47.3147 70.3094 47.3147C70.6684 47.3147 70.9377 47.4045 71.1171 48.0327L72.1941 57.4559C72.1941 57.9944 71.3864 57.9944 71.0274 57.9944C70.7582 57.9944 70.2197 57.8149 70.2197 57.4559L69.5017 51.802C69.412 51.5328 69.3223 51.443 69.1428 51.443C68.9633 51.443 68.9633 51.5328 68.7838 51.6225L66.2709 54.8533C66.1812 55.0328 66.0017 55.1226 65.7325 55.1226C65.4632 55.1226 65.2837 55.0328 65.194 54.7636L62.9504 51.802C62.8606 51.7122 62.7709 51.6225 62.5914 51.6225C62.4119 51.6225 62.3222 51.802 62.3222 51.9815L61.6042 57.4559C61.5145 57.9046 60.976 57.9944 60.5273 57.9944C60.1683 57.9944 59.7196 57.8149 59.7196 57.4559L60.7965 48.3019C60.8862 47.7635 61.0657 47.4045 61.7837 47.4045C61.9632 47.4045 62.3222 47.4942 62.5914 47.8532L65.4632 51.8917C65.6427 52.0712 65.8222 52.3405 66.0017 52.2507C66.0914 52.3405 66.3607 52.161 66.4504 51.8917Z" fill="#131426"/>
</svg>
